# xmcd CD database file
#
# Track frame offsets:
#	150
#	24429
#	41780
#	61247
#	100617
#	115865
#	177716
#	203098
#
# Disc length: 2984 seconds
#
# Revision: 0
# Processed by: cddbd v1.5.2PL0 Copyright (c) Steve Scherf et al.
# Submitted via: CDex 1.70beta2
#
DISCID=670ba608
DTITLE=Kenny Wheeler - Other People
DYEAR=2008
DGENRE=Jazz
TTITLE0=Other People
TTITLE1=Some Days Are Better
TTITLE2=Win Some Lose Some
TTITLE3=More Is Less
TTITLE4=Nita
TTITLE5=String Quartet N. 1
TTITLE6=The Lucky Lady
TTITLE7=The Unfortunate Gentleman
EXTD=YEAR: 2008
EXTT0=
EXTT1=
EXTT2=
EXTT3=
EXTT4=
EXTT5=
EXTT6=
EXTT7=
PLAYORDER=
